<svg width="188" height="64" viewBox="0 0 188 64" fill="none" xmlns="http://www.w3.org/2000/svg">
<rect width="188" height="64" fill="#3B82F6"/>
<path d="M27.804 19.5079L40.5498 32.0073L27.8988 44.6219C27.6918 44.3523 27.5311 44.0502 27.4233 43.7279C27.3676 43.363 27.3676 42.9918 27.4233 42.6269V21.1602C27.3854 20.5842 27.5181 20.0081 27.8025 19.5079M46.0404 26.5561L41.8798 30.6773L29.2856 18.2917C29.694 18.1502 30.1315 18.1108 30.5588 18.1779C31.2296 18.3617 31.8698 18.6446 32.4575 19.0136L43.8558 25.3208C44.5967 25.719 45.3185 26.1375 46.0404 26.5561ZM41.8813 33.3563L46.0215 37.4221L43.0202 39.0933L33.8633 44.1829C33.105 44.6015 32.3438 45.0011 31.6029 45.4575C31.2859 45.6549 30.9305 45.7823 30.5603 45.8314C30.1901 45.8804 29.8137 45.8499 29.4563 45.7419L41.8813 33.3563ZM52.6146 32.0073C52.6252 32.5172 52.4964 33.0204 52.2419 33.4625C51.9875 33.9045 51.6171 34.2687 51.1708 34.5156L47.7496 36.4144L43.2477 32.0073L47.7685 27.5244C48.9279 28.1704 50.0683 28.8165 51.2073 29.4246C51.6615 29.6785 52.0346 30.0558 52.2834 30.5128C52.5322 30.9699 52.648 31.488 52.6146 32.0073Z" fill="white"/>
<path d="M72.609 19.744C73.675 19.744 74.5677 20.0083 75.287 20.537C76.015 21.0657 76.5047 21.785 76.756 22.695H75.508C75.2913 22.1403 74.9273 21.694 74.416 21.356C73.9133 21.018 73.3153 20.849 72.622 20.849C71.998 20.849 71.439 20.9963 70.945 21.291C70.451 21.577 70.061 21.9887 69.775 22.526C69.4977 23.0633 69.359 23.696 69.359 24.424C69.359 25.1693 69.502 25.815 69.788 26.361C70.074 26.8983 70.4683 27.3143 70.971 27.609C71.4823 27.895 72.0673 28.038 72.726 28.038C73.2893 28.038 73.805 27.9167 74.273 27.674C74.741 27.4313 75.1223 27.0803 75.417 26.621C75.7203 26.153 75.9023 25.607 75.963 24.983H72.362V24.099H76.964V25.191C76.886 25.919 76.6607 26.5777 76.288 27.167C75.9153 27.7563 75.4127 28.2243 74.78 28.571C74.1473 28.9177 73.428 29.091 72.622 29.091C71.738 29.091 70.958 28.896 70.282 28.506C69.606 28.1073 69.0773 27.557 68.696 26.855C68.3233 26.1443 68.137 25.334 68.137 24.424C68.137 23.514 68.3233 22.708 68.696 22.006C69.0773 21.2953 69.606 20.7407 70.282 20.342C70.958 19.9433 71.7337 19.744 72.609 19.744ZM79.7502 20.797V23.93H83.2342V24.84H79.7502V28.038H83.6242V29H78.5672V19.835H83.6242V20.797H79.7502ZM90.7593 19.835V20.797H88.1723V29H86.9893V20.797H84.4023V19.835H90.7593ZM96.3302 19.835V29H95.1472V19.835H96.3302ZM103.848 19.835V20.797H101.261V29H100.078V20.797H97.4912V19.835H103.848ZM112.435 19.718C113.284 19.718 114.047 19.9173 114.723 20.316C115.408 20.7147 115.945 21.2737 116.335 21.993C116.725 22.7037 116.92 23.5097 116.92 24.411C116.92 25.3123 116.725 26.1227 116.335 26.842C115.945 27.5527 115.408 28.1073 114.723 28.506C114.047 28.9047 113.284 29.104 112.435 29.104C111.586 29.104 110.814 28.9047 110.121 28.506C109.436 28.1073 108.899 27.5527 108.509 26.842C108.119 26.1227 107.924 25.3123 107.924 24.411C107.924 23.5097 108.119 22.7037 108.509 21.993C108.899 21.2737 109.436 20.7147 110.121 20.316C110.814 19.9173 111.586 19.718 112.435 19.718ZM112.435 20.823C111.802 20.823 111.235 20.9703 110.732 21.265C110.238 21.551 109.848 21.967 109.562 22.513C109.285 23.0503 109.146 23.683 109.146 24.411C109.146 25.1303 109.285 25.763 109.562 26.309C109.848 26.855 110.238 27.2753 110.732 27.57C111.235 27.856 111.802 27.999 112.435 27.999C113.059 27.999 113.618 27.8517 114.112 27.557C114.615 27.2623 115.005 26.8463 115.282 26.309C115.568 25.763 115.711 25.1303 115.711 24.411C115.711 23.683 115.568 23.0503 115.282 22.513C115.005 21.967 114.615 21.551 114.112 21.265C113.618 20.9703 113.059 20.823 112.435 20.823ZM125.643 29H124.46L119.702 21.759V29H118.519V19.835H119.702L124.46 27.089V19.835H125.643V29ZM70.78 41.32V47H68.96V32.9H73.44C75.0533 32.9 76.26 33.28 77.06 34.04C77.86 34.7867 78.26 35.8133 78.26 37.12C78.26 38.44 77.8467 39.4733 77.02 40.22C76.1933 40.9533 75 41.32 73.44 41.32H70.78ZM73.28 39.8C74.3867 39.8 75.18 39.5667 75.66 39.1C76.1533 38.6333 76.4 37.9733 76.4 37.12C76.4 36.24 76.1533 35.5733 75.66 35.12C75.18 34.6533 74.3867 34.42 73.28 34.42H70.78V39.8H73.28ZM82.2058 32.2V47H80.3858V32.2H82.2058ZM89.6319 35.88C90.6985 35.88 91.5985 36.1467 92.3319 36.68C93.0785 37.2133 93.5985 37.9267 93.8919 38.82V36.02H95.7119V47H93.8919V44.2C93.5985 45.0933 93.0785 45.8067 92.3319 46.34C91.5985 46.8733 90.6985 47.14 89.6319 47.14C88.6585 47.14 87.7919 46.9133 87.0319 46.46C86.2719 46.0067 85.6719 45.36 85.2319 44.52C84.8052 43.6667 84.5919 42.6667 84.5919 41.52C84.5919 40.3733 84.8052 39.3733 85.2319 38.52C85.6719 37.6667 86.2719 37.0133 87.0319 36.56C87.7919 36.1067 88.6585 35.88 89.6319 35.88ZM90.1519 37.5C89.0319 37.5 88.1319 37.86 87.4519 38.58C86.7852 39.2867 86.4519 40.2667 86.4519 41.52C86.4519 42.7733 86.7852 43.76 87.4519 44.48C88.1319 45.1867 89.0319 45.54 90.1519 45.54C90.8719 45.54 91.5119 45.3733 92.0719 45.04C92.6452 44.7067 93.0919 44.24 93.4119 43.64C93.7319 43.0267 93.8919 42.32 93.8919 41.52C93.8919 40.72 93.7319 40.0133 93.4119 39.4C93.0919 38.7867 92.6452 38.32 92.0719 38C91.5119 37.6667 90.8719 37.5 90.1519 37.5ZM99.3684 36.02L102.928 44.66L106.228 36.02H108.248L101.728 52.2H99.6684L101.948 46.82L97.3284 36.02H99.3684ZM123.778 43.34C123.778 44.0067 123.618 44.6267 123.298 45.2C122.978 45.7733 122.492 46.24 121.838 46.6C121.185 46.96 120.378 47.14 119.418 47.14C118.485 47.14 117.652 46.9733 116.918 46.64C116.198 46.2933 115.618 45.8267 115.178 45.24C114.752 44.64 114.505 43.96 114.438 43.2H116.378C116.418 43.6 116.552 43.9933 116.778 44.38C117.018 44.7533 117.352 45.0667 117.778 45.32C118.218 45.56 118.745 45.68 119.358 45.68C120.158 45.68 120.772 45.4667 121.198 45.04C121.625 44.6133 121.838 44.0667 121.838 43.4C121.838 42.8267 121.685 42.36 121.378 42C121.085 41.64 120.718 41.36 120.278 41.16C119.838 40.9467 119.238 40.72 118.478 40.48C117.585 40.1867 116.865 39.9133 116.318 39.66C115.785 39.3933 115.325 39 114.938 38.48C114.565 37.96 114.378 37.2733 114.378 36.42C114.378 35.6867 114.552 35.04 114.898 34.48C115.258 33.92 115.765 33.4867 116.418 33.18C117.085 32.8733 117.865 32.72 118.758 32.72C120.145 32.72 121.245 33.06 122.058 33.74C122.872 34.4067 123.345 35.26 123.478 36.3H121.518C121.412 35.74 121.125 35.2467 120.658 34.82C120.192 34.3933 119.558 34.18 118.758 34.18C118.025 34.18 117.438 34.3733 116.998 34.76C116.558 35.1333 116.338 35.6667 116.338 36.36C116.338 36.9067 116.478 37.3533 116.758 37.7C117.052 38.0333 117.412 38.3 117.838 38.5C118.265 38.6867 118.852 38.9 119.598 39.14C120.505 39.4333 121.232 39.7133 121.778 39.98C122.338 40.2467 122.812 40.6533 123.198 41.2C123.585 41.7333 123.778 42.4467 123.778 43.34ZM131.466 45.4V47H130.106C128.986 47 128.146 46.7333 127.586 46.2C127.039 45.6667 126.766 44.7733 126.766 43.52V37.6H125.126V36.02H126.766V33.28H128.606V36.02H131.446V37.6H128.606V43.56C128.606 44.2667 128.732 44.7533 128.986 45.02C129.252 45.2733 129.706 45.4 130.346 45.4H131.466ZM138.667 35.88C139.72 35.88 140.66 36.1067 141.487 36.56C142.327 37.0133 142.98 37.6667 143.447 38.52C143.927 39.3733 144.167 40.3733 144.167 41.52C144.167 42.6667 143.927 43.6667 143.447 44.52C142.98 45.36 142.327 46.0067 141.487 46.46C140.66 46.9133 139.72 47.14 138.667 47.14C137.613 47.14 136.667 46.9133 135.827 46.46C135 46.0067 134.347 45.36 133.867 44.52C133.387 43.6667 133.147 42.6667 133.147 41.52C133.147 40.3733 133.387 39.3733 133.867 38.52C134.347 37.6667 135 37.0133 135.827 36.56C136.667 36.1067 137.613 35.88 138.667 35.88ZM138.667 37.48C138.013 37.48 137.407 37.6267 136.847 37.92C136.3 38.2133 135.853 38.6667 135.507 39.28C135.173 39.88 135.007 40.6267 135.007 41.52C135.007 42.4 135.173 43.1467 135.507 43.76C135.853 44.36 136.3 44.8067 136.847 45.1C137.407 45.3933 138.013 45.54 138.667 45.54C139.32 45.54 139.92 45.3933 140.467 45.1C141.027 44.8067 141.473 44.36 141.807 43.76C142.153 43.1467 142.327 42.4 142.327 41.52C142.327 40.6267 142.153 39.88 141.807 39.28C141.473 38.6667 141.027 38.2133 140.467 37.92C139.92 37.6267 139.32 37.48 138.667 37.48ZM148.358 38.24C148.718 37.48 149.245 36.8933 149.938 36.48C150.631 36.0533 151.458 35.84 152.418 35.84V37.82H151.858C150.831 37.82 149.991 38.0867 149.338 38.62C148.685 39.14 148.358 40.0067 148.358 41.22V47H146.538V36.02H148.358V38.24ZM164.314 40.9C164.314 41.2867 164.287 41.62 164.234 41.9H155.454C155.494 43.1533 155.847 44.0933 156.514 44.72C157.194 45.3467 158.021 45.66 158.994 45.66C159.874 45.66 160.607 45.44 161.194 45C161.794 44.5467 162.161 43.9467 162.294 43.2H164.234C164.101 43.96 163.801 44.64 163.334 45.24C162.881 45.84 162.287 46.3067 161.554 46.64C160.821 46.9733 159.994 47.14 159.074 47.14C158.021 47.14 157.087 46.9133 156.274 46.46C155.461 46.0067 154.821 45.36 154.354 44.52C153.901 43.6667 153.674 42.6667 153.674 41.52C153.674 40.3733 153.901 39.3733 154.354 38.52C154.821 37.6667 155.461 37.0133 156.274 36.56C157.087 36.1067 158.021 35.88 159.074 35.88C160.141 35.88 161.067 36.1067 161.854 36.56C162.654 37.0133 163.261 37.62 163.674 38.38C164.101 39.14 164.314 39.98 164.314 40.9ZM162.474 41.02C162.514 40.2067 162.381 39.5267 162.074 38.98C161.767 38.4333 161.347 38.0267 160.814 37.76C160.281 37.4933 159.701 37.36 159.074 37.36C158.074 37.36 157.234 37.6733 156.554 38.3C155.874 38.9133 155.507 39.82 155.454 41.02H162.474Z" fill="white"/>
</svg>
